# This file uses centimeters as units for non-parametric coordinates.

g default
v -0.250000 -2.000000 0.250000
v 0.250000 -2.000000 0.250000
v -0.250000 2.000000 0.250000
v 0.250000 2.000000 0.250000
v -0.250000 2.000000 -0.250000
v 0.250000 2.000000 -0.250000
v -0.250000 -2.000000 -0.250000
v 0.250000 -2.000000 -0.250000
vt 0.169522 0.044605
vt 0.284250 0.044605
vt 0.169522 0.962436
vt 0.284250 0.962436
vt 0.513708 0.962436
vt 0.398979 0.962436
vt 0.513708 0.044605
vt 0.398979 0.044604
vt 0.545639 0.316835
vt 0.663931 0.316835
vt 0.054793 0.044604
vt 0.054793 0.962436
vt 0.544444 0.044180
vt 0.662736 0.044180
vt 0.544444 0.162471
vt 0.662736 0.162471
vt 0.545639 0.198544
vt 0.663931 0.198544
vn 0.000000 0.000000 1.000000
vn 0.000000 0.000000 1.000000
vn 0.000000 0.000000 1.000000
vn 0.000000 0.000000 1.000000
vn 0.000000 1.000000 0.000000
vn 0.000000 1.000000 0.000000
vn 0.000000 1.000000 0.000000
vn 0.000000 1.000000 0.000000
vn 0.000000 0.000000 -1.000000
vn 0.000000 0.000000 -1.000000
vn 0.000000 0.000000 -1.000000
vn 0.000000 0.000000 -1.000000
vn 0.000000 -1.000000 0.000000
vn 0.000000 -1.000000 0.000000
vn 0.000000 -1.000000 0.000000
vn 0.000000 -1.000000 0.000000
vn 1.000000 0.000000 0.000000
vn 1.000000 0.000000 0.000000
vn 1.000000 0.000000 0.000000
vn 1.000000 0.000000 0.000000
vn -1.000000 0.000000 0.000000
vn -1.000000 0.000000 0.000000
vn -1.000000 0.000000 0.000000
vn -1.000000 0.000000 0.000000
g pCube1
f 1/1/1 2/2/2 3/3/3
f 3/3/3 2/2/2 4/4/4
f 3/13/5 4/14/6 5/15/7
f 5/15/7 4/14/6 6/16/8
f 5/5/9 6/6/10 7/7/11
f 7/7/11 6/6/10 8/8/12
f 7/17/13 8/18/14 1/9/15
f 1/9/15 8/18/14 2/10/16
f 2/2/17 8/8/18 4/4/19
f 4/4/19 8/8/18 6/6/20
f 7/11/21 1/1/22 5/12/23
f 5/12/23 1/1/22 3/3/24
