# This file uses centimeters as units for non-parametric coordinates.

g default
v 0.173205 -2.000000 -0.100000
v 0.100000 -2.000000 -0.173205
v 0.000000 -2.000000 -0.200000
v -0.100000 -2.000000 -0.173205
v -0.173205 -2.000000 -0.100000
v -0.200000 -2.000000 0.000000
v -0.173205 -2.000000 0.100000
v -0.100000 -2.000000 0.173205
v 0.000000 -2.000000 0.200000
v 0.100000 -2.000000 0.173205
v 0.173205 -2.000000 0.100000
v 0.200000 -2.000000 0.000000
v 0.173205 2.000000 -0.100000
v 0.100000 2.000000 -0.173205
v 0.000000 2.000000 -0.200000
v -0.100000 2.000000 -0.173205
v -0.173205 2.000000 -0.100000
v -0.200000 2.000000 0.000000
v -0.173205 2.000000 0.100000
v -0.100000 2.000000 0.173205
v 0.000000 2.000000 0.200000
v 0.100000 2.000000 0.173205
v 0.173205 2.000000 0.100000
v 0.200000 2.000000 0.000000
v 0.000000 -2.000000 0.000000
v 0.000000 2.000000 0.000000
vt 0.451474 0.089618
vt 0.439059 0.077203
vt 0.422098 0.072658
vt 0.405138 0.077203
vt 0.392723 0.089618
vt 0.388178 0.106579
vt 0.392723 0.123539
vt 0.405138 0.135954
vt 0.422098 0.140499
vt 0.439059 0.135954
vt 0.451474 0.123539
vt 0.456019 0.106579
vt 0.037584 0.018288
vt 0.062519 0.018288
vt 0.087455 0.018288
vt 0.112390 0.018288
vt 0.137325 0.018288
vt 0.162260 0.018288
vt 0.187196 0.018288
vt 0.212131 0.018288
vt 0.237066 0.018288
vt 0.262001 0.018288
vt 0.286937 0.018288
vt 0.311872 0.018288
vt 0.336807 0.018288
vt 0.037584 0.981712
vt 0.062519 0.981712
vt 0.087455 0.981712
vt 0.112390 0.981712
vt 0.137325 0.981712
vt 0.162260 0.981712
vt 0.187196 0.981712
vt 0.212131 0.981712
vt 0.237066 0.981712
vt 0.262001 0.981712
vt 0.286937 0.981712
vt 0.311872 0.981712
vt 0.336807 0.981712
vt 0.451474 0.238868
vt 0.439059 0.226452
vt 0.422098 0.221908
vt 0.405138 0.226452
vt 0.392723 0.238868
vt 0.388178 0.255828
vt 0.392723 0.272788
vt 0.405138 0.285204
vt 0.422098 0.289748
vt 0.439059 0.285204
vt 0.451474 0.272788
vt 0.456019 0.255828
vt 0.422098 0.106579
vt 0.422098 0.255828
vn 0.707107 0.000000 -0.707107
vn 0.707107 0.000000 -0.707107
vn 0.707107 0.000000 -0.707107
vn 0.707107 0.000000 -0.707107
vn 0.258819 0.000000 -0.965926
vn 0.258819 0.000000 -0.965926
vn 0.258819 0.000000 -0.965926
vn 0.258819 0.000000 -0.965926
vn -0.258819 0.000000 -0.965926
vn -0.258819 0.000000 -0.965926
vn -0.258819 0.000000 -0.965926
vn -0.258819 0.000000 -0.965926
vn -0.707107 0.000000 -0.707107
vn -0.707107 0.000000 -0.707107
vn -0.707107 0.000000 -0.707107
vn -0.707107 0.000000 -0.707107
vn -0.965926 0.000000 -0.258819
vn -0.965926 0.000000 -0.258819
vn -0.965926 0.000000 -0.258819
vn -0.965926 0.000000 -0.258819
vn -0.965926 0.000000 0.258819
vn -0.965926 0.000000 0.258819
vn -0.965926 0.000000 0.258819
vn -0.965926 0.000000 0.258819
vn -0.707107 0.000000 0.707107
vn -0.707107 0.000000 0.707107
vn -0.707107 0.000000 0.707107
vn -0.707107 0.000000 0.707107
vn -0.258819 0.000000 0.965926
vn -0.258819 0.000000 0.965926
vn -0.258819 0.000000 0.965926
vn -0.258819 0.000000 0.965926
vn 0.258819 0.000000 0.965926
vn 0.258819 0.000000 0.965926
vn 0.258819 0.000000 0.965926
vn 0.258819 0.000000 0.965926
vn 0.707107 0.000000 0.707107
vn 0.707107 0.000000 0.707107
vn 0.707107 0.000000 0.707107
vn 0.707107 0.000000 0.707107
vn 0.965926 0.000000 0.258819
vn 0.965926 0.000000 0.258819
vn 0.965926 0.000000 0.258819
vn 0.965926 0.000000 0.258819
vn 0.965926 0.000000 -0.258819
vn 0.965926 0.000000 -0.258819
vn 0.965926 0.000000 -0.258819
vn 0.965926 0.000000 -0.258819
vn 0.000000 -1.000000 0.000000
vn 0.000000 -1.000000 0.000000
vn 0.000000 -1.000000 0.000000
vn 0.000000 -1.000000 0.000000
vn 0.000000 -1.000000 0.000000
vn 0.000000 -1.000000 0.000000
vn 0.000000 -1.000000 0.000000
vn 0.000000 -1.000000 0.000000
vn 0.000000 -1.000000 0.000000
vn 0.000000 -1.000000 0.000000
vn 0.000000 -1.000000 0.000000
vn 0.000000 -1.000000 0.000000
vn 0.000000 -1.000000 0.000000
vn 0.000000 1.000000 0.000000
vn 0.000000 1.000000 0.000000
vn 0.000000 1.000000 0.000000
vn 0.000000 1.000000 0.000000
vn 0.000000 1.000000 0.000000
vn 0.000000 1.000000 0.000000
vn 0.000000 1.000000 0.000000
vn 0.000000 1.000000 0.000000
vn 0.000000 1.000000 0.000000
vn 0.000000 1.000000 0.000000
vn 0.000000 1.000000 0.000000
vn 0.000000 1.000000 0.000000
vn 0.000000 1.000000 0.000000
g pCylinder1
f 1/13/1 2/14/2 13/26/3
f 13/26/3 2/14/2 14/27/4
f 2/14/5 3/15/6 14/27/7
f 14/27/7 3/15/6 15/28/8
f 3/15/9 4/16/10 15/28/11
f 15/28/11 4/16/10 16/29/12
f 4/16/13 5/17/14 16/29/15
f 16/29/15 5/17/14 17/30/16
f 5/17/17 6/18/18 17/30/19
f 17/30/19 6/18/18 18/31/20
f 6/18/21 7/19/22 18/31/23
f 18/31/23 7/19/22 19/32/24
f 7/19/25 8/20/26 19/32/27
f 19/32/27 8/20/26 20/33/28
f 8/20/29 9/21/30 20/33/31
f 20/33/31 9/21/30 21/34/32
f 9/21/33 10/22/34 21/34/35
f 21/34/35 10/22/34 22/35/36
f 10/22/37 11/23/38 22/35/39
f 22/35/39 11/23/38 23/36/40
f 11/23/41 12/24/42 23/36/43
f 23/36/43 12/24/42 24/37/44
f 12/24/45 1/25/46 24/37/47
f 24/37/47 1/25/46 13/38/48
f 2/2/49 1/1/50 25/51/51
f 3/3/52 2/2/49 25/51/51
f 4/4/53 3/3/52 25/51/51
f 5/5/54 4/4/53 25/51/51
f 6/6/55 5/5/54 25/51/51
f 7/7/56 6/6/55 25/51/51
f 8/8/57 7/7/56 25/51/51
f 9/9/58 8/8/57 25/51/51
f 10/10/59 9/9/58 25/51/51
f 11/11/60 10/10/59 25/51/51
f 12/12/61 11/11/60 25/51/51
f 1/1/50 12/12/61 25/51/51
f 13/49/62 14/48/63 26/52/64
f 14/48/63 15/47/65 26/52/64
f 15/47/65 16/46/66 26/52/64
f 16/46/66 17/45/67 26/52/64
f 17/45/67 18/44/68 26/52/64
f 18/44/68 19/43/69 26/52/64
f 19/43/69 20/42/70 26/52/64
f 20/42/70 21/41/71 26/52/64
f 21/41/71 22/40/72 26/52/64
f 22/40/72 23/39/73 26/52/64
f 23/39/73 24/50/74 26/52/64
f 24/50/74 13/49/62 26/52/64
