# This file uses centimeters as units for non-parametric coordinates.

mtllib base.mtl
g default
v -0.788299 0.000000 -1.365369
v -0.788293 0.000000 1.365368
v 1.576591 0.000000 -0.000000
v -0.400530 1.000000 -0.693739
v -0.400531 1.000000 0.693740
v 0.801059 1.000000 -0.000000
vt 0.421875 0.020934
vt 0.421875 0.291566
vt 0.656250 0.156250
vt 0.375000 0.312500
vt 0.458333 0.312500
vt 0.541667 0.312500
vt 0.625000 0.312500
vt 0.375000 0.687500
vt 0.458333 0.687500
vt 0.541667 0.687500
vt 0.625000 0.687500
vt 0.421875 0.708434
vt 0.421875 0.979066
vt 0.656250 0.843750
vn -0.932358 0.361537 0.000002
vn -0.932358 0.361536 0.000001
vn -0.932358 0.361537 0.000002
vn -0.932359 0.361533 -0.000000
vn 0.466180 0.361537 0.807445
vn 0.466180 0.361537 0.807445
vn 0.466180 0.361537 0.807445
vn 0.466180 0.361537 0.807445
vn 0.466179 0.361536 -0.807446
vn 0.466179 0.361536 -0.807446
vn 0.466179 0.361536 -0.807446
vn 0.466180 0.361535 -0.807446
vn 0.000000 -1.000000 0.000000
vn 0.000000 -1.000000 0.000000
vn 0.000000 -1.000000 0.000000
vn 0.000000 1.000000 0.000000
vn 0.000000 1.000000 0.000000
vn 0.000000 1.000000 0.000000
s 1
g pPrism1
usemtl initialShadingGroup
f 1/4/1 2/5/2 4/8/3
f 4/8/3 2/5/2 5/9/4
s 2
f 2/5/5 3/6/6 5/9/7
f 5/9/7 3/6/6 6/10/8
s 3
f 3/6/9 1/7/10 6/10/11
f 6/10/11 1/7/10 4/11/12
s off
f 1/1/13 3/3/14 2/2/15
f 4/13/16 5/12/17 6/14/18
g default
v -0.788299 0.000000 -1.365369
v -0.788293 0.000000 1.365368
v 1.576591 0.000000 -0.000000
v -0.400530 1.000000 -0.693739
v -0.400531 1.000000 0.693740
v 0.801059 1.000000 -0.000000
vt 0.421875 0.020934
vt 0.421875 0.291566
vt 0.656250 0.156250
vt 0.375000 0.312500
vt 0.458333 0.312500
vt 0.541667 0.312500
vt 0.625000 0.312500
vt 0.375000 0.687500
vt 0.458333 0.687500
vt 0.541667 0.687500
vt 0.625000 0.687500
vt 0.421875 0.708434
vt 0.421875 0.979066
vt 0.656250 0.843750
vn -0.932358 0.361537 0.000002
vn -0.932358 0.361536 0.000001
vn -0.932358 0.361537 0.000002
vn -0.932359 0.361533 -0.000000
vn 0.466180 0.361537 0.807445
vn 0.466180 0.361537 0.807445
vn 0.466180 0.361537 0.807445
vn 0.466180 0.361537 0.807445
vn 0.466179 0.361536 -0.807446
vn 0.466179 0.361536 -0.807446
vn 0.466179 0.361536 -0.807446
vn 0.466180 0.361535 -0.807446
vn 0.000000 -1.000000 0.000000
vn 0.000000 -1.000000 0.000000
vn 0.000000 -1.000000 0.000000
vn 0.000000 1.000000 0.000000
vn 0.000000 1.000000 0.000000
vn 0.000000 1.000000 0.000000
s 1
g pPrism1
f 7/18/19 8/19/20 10/22/21
f 10/22/21 8/19/20 11/23/22
s 2
f 8/19/23 9/20/24 11/23/25
f 11/23/25 9/20/24 12/24/26
s 3
f 9/20/27 7/21/28 12/24/29
f 12/24/29 7/21/28 10/25/30
s off
f 7/15/31 9/17/32 8/16/33
f 10/27/34 11/26/35 12/28/36
