# This file uses centimeters as units for non-parametric coordinates.

g default
v 0.000000 -0.266975 -0.698949
v -0.266975 -0.698949 0.000000
v -0.698949 0.000000 -0.266975
v -0.431974 -0.431974 -0.431974
v -0.431974 -0.431974 0.431974
v 0.000000 -0.266975 0.698949
v -0.266975 0.698949 0.000000
v -0.698949 0.000000 0.266975
v -0.431974 0.431974 -0.431974
v -0.431974 0.431974 0.431974
v 0.000000 0.266975 -0.698949
v 0.266975 -0.698949 0.000000
v 0.698949 0.000000 -0.266975
v 0.431974 -0.431974 -0.431974
v 0.431974 -0.431974 0.431974
v 0.000000 0.266975 0.698949
v 0.266975 0.698949 0.000000
v 0.698949 0.000000 0.266975
v 0.431974 0.431974 -0.431974
v 0.431974 0.431974 0.431974
vt 0.735890 0.361653
vt 0.941598 0.502715
vt 0.597183 0.361654
vt 0.470900 0.637999
vt 0.077075 0.498135
vt 0.652844 0.897262
vt 0.248664 0.931935
vt 0.941598 0.370770
vt 0.442544 0.897262
vt 0.778753 0.229736
vt 0.287375 0.498135
vt 0.347133 0.117405
vt 0.913013 0.806814
vt 0.271347 0.055430
vt 0.248664 0.793229
vt 0.132640 0.055430
vt 0.117239 0.374523
vt 0.314209 0.187347
vt 0.612680 0.773651
vt 0.557432 0.117405
vt 0.959994 0.075423
vt 0.959994 0.207368
vt 0.571959 0.510427
vt 0.771526 0.538153
vt 0.771526 0.670099
vt 0.571959 0.380455
vt 0.246468 0.637999
vt 0.116747 0.974798
vt 0.035217 0.862582
vt 0.913013 0.938760
vt 0.482708 0.773651
vt 0.787525 0.979533
vt 0.517269 0.241016
vt 0.816109 0.329996
vt 0.452282 0.041009
vt 0.709969 0.872787
vt 0.201994 0.268877
vt 0.666537 0.148206
vt 0.247211 0.374523
vt 0.554321 0.229736
vt 0.089778 0.187348
vt 0.358684 0.556469
vt 0.371952 0.445441
vt 0.448348 0.340291
vt 0.568483 0.604126
vt 0.646039 0.710872
vt 0.834506 0.034649
vt 0.787525 0.766041
vt 0.116746 0.750366
vt 0.646038 0.497380
vt 0.182225 0.574531
vt 0.738554 0.436743
vt 0.387296 0.241016
vt 0.816110 0.543489
vt 0.289331 0.769917
vt 0.547694 0.973657
vt 0.834506 0.248142
vt 0.428037 0.769916
vt 0.756950 0.141396
vt 0.448348 0.550591
vn 0.000000 0.850651 -0.525731
vn 0.000000 0.850651 -0.525731
vn 0.000000 0.850651 -0.525731
vn 0.000000 0.850651 -0.525731
vn 0.000000 0.850651 -0.525731
vn 0.850651 0.525731 0.000000
vn 0.850651 0.525731 0.000000
vn 0.850651 0.525731 0.000000
vn 0.850651 0.525731 0.000000
vn 0.850651 0.525731 0.000000
vn 0.000000 0.850651 0.525731
vn 0.000000 0.850651 0.525731
vn 0.000000 0.850651 0.525731
vn 0.000000 0.850651 0.525731
vn 0.000000 0.850651 0.525731
vn -0.850651 0.525731 0.000000
vn -0.850651 0.525731 0.000000
vn -0.850651 0.525731 0.000000
vn -0.850651 0.525731 0.000000
vn -0.850651 0.525731 0.000000
vn 0.000000 -0.850651 -0.525731
vn 0.000000 -0.850651 -0.525731
vn 0.000000 -0.850651 -0.525731
vn 0.000000 -0.850651 -0.525731
vn 0.000000 -0.850651 -0.525731
vn 0.000000 -0.850651 0.525731
vn 0.000000 -0.850651 0.525731
vn 0.000000 -0.850651 0.525731
vn 0.000000 -0.850651 0.525731
vn 0.000000 -0.850651 0.525731
vn 0.525731 -0.000000 -0.850651
vn 0.525731 -0.000000 -0.850651
vn 0.525731 0.000000 -0.850651
vn 0.525731 0.000000 -0.850651
vn 0.525731 0.000000 -0.850651
vn -0.525731 0.000000 -0.850651
vn -0.525731 -0.000000 -0.850651
vn -0.525731 0.000000 -0.850651
vn -0.525731 -0.000000 -0.850651
vn -0.525731 0.000000 -0.850651
vn -0.850651 -0.525731 0.000000
vn -0.850651 -0.525731 0.000000
vn -0.850651 -0.525731 0.000000
vn -0.850651 -0.525731 0.000000
vn -0.850651 -0.525731 0.000000
vn -0.525731 -0.000000 0.850651
vn -0.525731 -0.000000 0.850651
vn -0.525731 0.000000 0.850651
vn -0.525731 0.000000 0.850651
vn -0.525731 0.000000 0.850651
vn 0.850651 -0.525731 0.000000
vn 0.850651 -0.525731 0.000000
vn 0.850651 -0.525731 0.000000
vn 0.850651 -0.525731 0.000000
vn 0.850651 -0.525731 0.000000
vn 0.525731 0.000000 0.850651
vn 0.525731 -0.000000 0.850651
vn 0.525731 0.000000 0.850651
vn 0.525731 -0.000000 0.850651
vn 0.525731 0.000000 0.850651
g pPlatonic1
f 7/22/1 17/57/2 9/21/3
f 17/57/2 19/59/4 9/21/3
f 19/59/4 11/47/5 9/21/3
f 18/27/6 13/42/7 20/55/8
f 13/42/7 19/4/9 20/55/8
f 19/4/9 17/58/10 20/55/8
f 16/34/11 20/8/12 10/52/13
f 20/8/12 17/2/14 10/52/13
f 17/2/14 7/54/15 10/52/13
f 3/40/16 8/38/17 9/3/18
f 8/38/17 10/10/19 9/3/18
f 10/10/19 7/1/20 9/3/18
f 12/50/21 2/24/22 14/45/23
f 2/24/22 4/25/24 14/45/23
f 4/25/24 1/46/25 14/45/23
f 2/48/26 12/13/27 5/36/28
f 12/13/27 15/30/29 5/36/28
f 15/30/29 6/32/30 5/36/28
f 14/44/31 1/26/32 13/43/33
f 1/26/32 11/23/34 13/43/33
f 11/23/34 19/60/35 13/43/33
f 1/17/36 4/39/37 11/5/38
f 4/39/37 3/11/39 11/5/38
f 3/11/39 9/51/40 11/5/38
f 2/14/41 5/18/42 4/16/43
f 5/18/42 8/37/44 4/16/43
f 8/37/44 3/41/45 4/16/43
f 5/35/46 6/20/47 8/12/48
f 6/20/47 16/33/49 8/12/48
f 16/33/49 10/53/50 8/12/48
f 12/49/51 14/15/52 15/29/53
f 14/15/52 13/7/54 15/29/53
f 13/7/54 18/28/55 15/29/53
f 6/31/56 15/19/57 16/9/58
f 15/19/57 18/6/59 16/9/58
f 18/6/59 20/56/60 16/9/58
